<svg xmlns="http://www.w3.org/2000/svg" xmlns:xlink="http://www.w3.org/1999/xlink" width="45px" height="45px" viewBox="0 0 45 45" version="1.1">
    <title>Icons/Notifications/Margema Small</title>
    <g id="Symbols" stroke="none" stroke-width="1" fill="none" fill-rule="evenodd">
        <g id="Icons/Notifications/Margema-Small" fill-rule="nonzero">
            <g id="Group-Copy" transform="translate(22.500000, 22.500000) scale(-1, 1) translate(-22.500000, -22.500000) translate(7.000000, 6.500000)">
                <path d="M28.3787431,1.80288028 L28.5419951,1.94899784 C29.0684228,2.51879688 29.1469842,3.41230315 28.7684974,3.97045836 L28.6633562,4.10592872 L28.3383503,4.63234127 L27.4402398,6.12999 L24.9871488,10.4504625 C24.0324337,12.1310553 22.8616723,13.6545409 21.4988766,14.9884407 L20.9693401,15.4885361 L20.5877404,15.8044476 L20.393724,15.9578014 L19.8803427,16.3393621 L19.2927649,16.7410921 L18.4438392,17.2823607 L16.210023,18.6451749 L15.3688444,19.1870145 L15.001122,19.4405843 L14.6480842,19.6966129 L14.400913,19.9038316 L13.5480089,20.6818674 C12.4739643,21.6600206 11.4473301,22.6985762 10.4728613,23.7927544 L9.81244482,24.5516137 L9.37191109,27.2765454 L7.02353132,29.6856148 L5.70128644,27.6210987 L5.18352152,27.6981288 C5.08434109,27.7029366 4.935408,27.6693025 4.79740497,27.5933014 L4.65741741,27.5014086 L4.56023363,27.4109851 L4.18171755,27.008204 C4.01962449,26.8428973 3.93201865,26.6225474 3.92960671,26.3974883 L3.93886548,26.2445016 L3.94007525,26.269408 L4.01984783,25.8081056 L2.06817532,24.4482036 L4.41493883,21.9902191 L6.82349833,21.5598442 L7.14443543,21.3956843 L7.46372788,21.0928835 C8.33025784,20.2543569 9.02357122,19.5303345 9.68586708,18.7702649 L10.0835667,18.3051143 L10.8270253,17.3099746 L11.4599734,16.433924 L11.6074552,16.2119412 L11.9956957,15.5929592 L12.4175962,14.8677618 L13.6251611,12.6680111 L14.2038271,11.649118 L14.547997,11.0811802 L14.8712371,10.5844845 L15.2065308,10.1079207 L15.5648997,9.63511157 C16.9693494,8.12561176 18.2263958,6.98532565 19.701926,5.92064981 L20.3047203,5.49827381 L20.9509295,5.10245977 L21.5268484,4.73415106 L24.1084159,3.14882783 L25.7688345,2.08012003 L26.1208529,1.78684642 C26.7766589,1.25778471 27.7014258,1.26754379 28.3787431,1.80288028 Z" id="Path" fill="#FFFFFF"/>
                <path d="M29.2914158,0.800222144 L29.4370638,0.938079132 L29.6279015,1.16214796 C30.3985592,2.16332818 30.5130172,3.58657449 29.8974058,4.65445597 L29.7880314,4.8290125 L29.7025999,4.93372219 L29.6798198,4.97125314 L29.6864744,4.98051609 L29.2520635,5.68170777 L28.4660323,6.99249555 L26.0891009,11.1815689 C25.162631,12.8124415 24.0457061,14.3045325 22.7517441,15.6374822 L22.3582579,16.0325725 L21.7892024,16.5683581 L21.3641807,16.9218536 L21.1444265,17.0955563 L20.707167,17.4235058 L20.4680859,17.5935495 L19.9652221,17.9346273 L19.0902406,18.492677 L16.8588818,19.8539155 L16.0479963,20.3760726 L15.7096225,20.6095551 L15.4075955,20.8264729 L15.217163,20.9874219 L14.3817162,21.7501124 C13.5495136,22.5080159 12.747046,23.3030093 11.9790196,24.1299896 L11.4095312,24.7561426 L11.0188477,25.202894 L10.5725681,27.9708554 L6.8211582,31.8229811 L5.06789506,29.0864047 L4.85735246,29.0642383 C4.75617117,29.0467098 4.65491179,29.0208507 4.5535651,28.9863882 L4.4014784,28.9282079 L4.17308761,28.8162933 L3.92625212,28.6504549 L3.7093451,28.4608074 L3.28766169,28.0177672 C2.92064933,27.6437256 2.69685838,27.1418463 2.64779709,26.5802949 L2.644,26.512 L1.20081722e-12,24.6689599 L3.80831176,20.6820316 L6.43037553,20.2135523 L6.99483904,19.666853 C7.39683021,19.2693127 7.76023742,18.8952439 8.10286256,18.5258903 L8.35621294,18.2494662 L8.74043873,17.8169134 L9.10561032,17.3920794 L9.8135138,16.4422145 L10.4260633,15.5951174 L10.5457269,15.4144904 L10.9130477,14.8292837 L11.3141367,14.1395333 L12.5166927,11.9485441 L12.9234164,11.2253086 L13.1163416,10.8932155 L13.4748974,10.3017202 L13.6510507,10.025758 L13.8308756,9.75485464 L14.1913639,9.24273374 L14.6079023,8.69796687 C15.9759478,7.22270196 17.1919596,6.09834 18.5720212,5.06174207 L18.9912773,4.75313247 L19.6334496,4.30449496 L20.3020904,3.89365421 L20.8781983,3.52522937 L23.4582402,1.94088524 L25.0368954,0.931738964 L25.3328843,0.678953606 C26.5132182,-0.273823391 28.1524278,-0.21512275 29.2914158,0.800222144 Z M10.704,17.474 L10.0835667,18.3051143 L9.68586708,18.7702649 C9.11818491,19.4217531 8.52771437,20.0467577 7.82490734,20.7400865 L7.46372788,21.0928835 L7.14443543,21.3956843 L6.82349833,21.5598442 L4.41493883,21.9902191 L2.06817532,24.4482036 L4.01984783,25.8081056 L3.94007525,26.269408 L3.93886548,26.2445016 L3.92960671,26.3974883 C3.93161666,26.5850375 3.99278904,26.7693165 4.10692785,26.9211967 L4.18171755,27.008204 L4.56023363,27.4109851 L4.65741741,27.5014086 L4.79740497,27.5933014 C4.90090725,27.6503022 5.01055768,27.6834716 5.10075574,27.6944655 L5.18352152,27.6981288 L5.70128644,27.6210987 L7.02353132,29.6856148 L9.37191109,27.2765454 L9.81244482,24.5516137 L10.4728613,23.7927544 C11.2524363,22.9174118 12.0653973,22.0776677 12.9093094,21.2759694 L13.5480089,20.6818674 L13.681,20.559 L10.704,17.474 Z M20.72,5.243 L20.3047203,5.49827381 L19.701926,5.92064981 C18.3739488,6.87885806 17.2229435,7.89831064 15.9821784,9.19304443 L15.5648997,9.63511157 L15.2065308,10.1079207 L14.8712371,10.5844845 L14.547997,11.0811802 L14.2038271,11.649118 L13.6251611,12.6680111 L12.4175962,14.8677618 L11.9956957,15.5929592 L11.6074552,16.2119412 L11.4599734,16.433924 L11.005,17.062 L14.054,20.219 L14.400913,19.9038316 L14.6480842,19.6966129 L15.001122,19.4405843 L15.3688444,19.1870145 L16.210023,18.6451749 L18.4438392,17.2823607 L19.2927649,16.7410921 L19.8803427,16.3393621 L20.393724,15.9578014 L20.5877404,15.8044476 L20.9693401,15.4885361 L21.4988766,14.9884407 C22.7253927,13.7879309 23.7963611,12.4338566 24.6942769,10.9498947 L24.9871488,10.4504625 L25.289,9.918 L20.72,5.243 Z M25.471,2.271 L24.1084159,3.14882783 L21.5268484,4.73415106 L21.157,4.97 L25.548,9.462 L27.4402398,6.12999 L28.113,5.008 L25.471,2.271 Z M26.2554472,1.68821443 L26.1208529,1.78684642 L25.889,1.979 L28.382,4.56 L28.6633562,4.10592872 L28.7684974,3.97045836 C29.1199495,3.45217138 29.077314,2.64472966 28.6479426,2.07581216 L28.5419951,1.94899784 L28.3787431,1.80288028 C27.7465802,1.30323289 26.8988614,1.26142182 26.2554472,1.68821443 Z" id="Combined-Shape" fill="#164483"/>
            </g>
        </g>
    </g>
</svg>