<svg xmlns="http://www.w3.org/2000/svg" xmlns:xlink="http://www.w3.org/1999/xlink" width="46px" height="46px" viewBox="0 0 46 46" version="1.1">
    <title>Icons/Swipe/Off</title>
    <defs>
        <rect id="path-1" x="0" y="0" width="46" height="46" rx="4"/>
        <filter x="-9.8%" y="-9.8%" width="119.6%" height="119.6%" filterUnits="objectBoundingBox" id="filter-2">
            <feOffset dx="0" dy="0" in="SourceAlpha" result="shadowOffsetOuter1"/>
            <feGaussianBlur stdDeviation="1.5" in="shadowOffsetOuter1" result="shadowBlurOuter1"/>
            <feColorMatrix values="0 0 0 0 0   0 0 0 0 0   0 0 0 0 0  0 0 0 0.5 0" type="matrix" in="shadowBlurOuter1"/>
        </filter>
    </defs>
    <g id="Symbols" stroke="none" stroke-width="1" fill="none" fill-rule="evenodd">
        <g id="Group">
            <g id="Rectangle">
                
                
            </g>
            <g id="Group" transform="translate(9.500000, 9.500000)" fill="#09121b">
                <path d="M7.61011161,26.7225103 L10.6040047,23.7271419 C10.974442,23.3565221 10.974442,22.7559279 10.6040047,22.3834075 C10.2316678,22.0127877 9.63136941,22.0127877 9.26093213,22.3834075 L6.26703899,25.3787759 C5.89660171,25.7493957 5.89660171,26.3518905 6.26703899,26.7225103 C6.45320747,26.9087705 6.69636631,27 6.93762546,27 C7.1807843,27 7.42394313,26.9087705 7.61011161,26.7225103 M1.62232534,26.7225103 L7.61011161,20.7317735 C7.9805489,20.3611537 7.9805489,19.7586589 7.61011161,19.3880391 C7.23967433,19.0174193 6.63747628,19.0174193 6.26703899,19.3880391 L0.279252723,25.3787759 C-0.0930842409,25.7493957 -0.0930842409,26.3518905 0.279252723,26.7225103 C0.463521526,26.9087705 0.706680359,27 0.949839192,27 C1.19299803,27 1.43615686,26.9087705 1.62232534,26.7225103 M1.62232534,20.7317735 L4.61621848,17.7364051 C4.98665576,17.3657853 4.98665576,16.7632905 4.61621848,16.3926707 C4.24578119,16.0220509 3.64358314,16.0220509 3.27314586,16.3926707 L0.279252723,19.3880391 C-0.0930842409,19.7586589 -0.0930842409,20.3611537 0.279252723,20.7317735 C0.463521526,20.9180337 0.706680359,21.0111639 0.949839192,21.0111639 C1.19299803,21.0111639 1.43615686,20.9180337 1.62232534,20.7317735 M26.7835656,5.15623807 C26.2592543,8.0660788 24.8477933,10.7383427 22.7011567,12.8860371 L15.6438515,19.9373167 C15.0530515,20.5246066 14.1013127,20.5246066 13.5105127,19.9354161 L7.06300424,13.4847306 C6.47410394,12.8955401 6.47410394,11.9395311 7.06490391,11.3503406 L14.1203094,4.30096156 C16.266946,2.15326723 18.9378938,0.741110688 21.8482011,0.216541098 C23.2976557,-0.0438430819 24.7186151,-0.0704516843 26.0692865,0.142417135 L26.751271,0.248851544 L26.857653,0.931172134 C27.070417,2.28250901 27.0438215,3.70416862 26.7835656,5.15623807" id="Fill-1" transform="translate(13.500000, 13.500000) scale(-1, 1) rotate(-360.000000) translate(-13.500000, -13.500000) "/>
            </g>
        </g>
    </g>
</svg>