<svg xmlns="http://www.w3.org/2000/svg" xmlns:xlink="http://www.w3.org/1999/xlink" width="55px" height="55px" viewBox="0 0 55 55" version="1.1">
    <title>Icons/Change Weponse/M</title>
    <g id="Symbols" stroke="none" stroke-width="1" fill="none" fill-rule="evenodd">
        <g id="Icons/Change-Weponse/M" fill="#93AAD1" fill-rule="nonzero">
            <path d="M9.98571189,34.3618499 C10.0664857,34.3633394 10.1468562,34.3723532 10.2257886,34.3887265 L10.3429793,34.4187854 L17.8080406,36.7086477 C18.2198828,36.8349778 18.451336,37.2712525 18.3250059,37.6830946 C18.2076994,38.0655195 17.8231447,38.2924049 17.439063,38.2217191 L17.350559,38.20006 L10.94517,36.2329639 C10.9531441,36.242739 10.9609243,36.2527549 10.9685009,36.2630101 C16.7307008,44.0623086 24.1179286,46.8569506 33.2713734,44.7092062 C33.6907654,44.610801 34.110523,44.8710122 34.2089282,45.2904041 C34.3073334,45.7097961 34.0471222,46.1295537 33.6277302,46.2279589 C24.107803,48.4616939 16.2487367,45.6357677 10.1813017,37.8078552 L10.0806023,43.3183701 C10.0732275,43.7183141 9.76608921,44.0423903 9.37740029,44.0802875 L9.28635452,44.0838572 C8.88641056,44.0764824 8.56233436,43.7693441 8.52443715,43.3806552 L8.52086746,43.2896094 L8.66196556,35.6376617 C8.67520232,34.9198136 9.26786374,34.3486132 9.98571189,34.3618499 Z M45.7227447,27.7460672 L48.884596,29.49871 L48.7929482,32.9781686 L46.4795341,37.1516783 L43.4111821,38.8206565 L42.5914429,38.3662676 L41.3027632,40.5796589 L39.1973066,44.1890712 L38.3783206,43.7350999 L40.337183,40.0444291 L41.3305741,38.1718602 L41.5374924,37.7820533 L40.7177532,37.3276645 L40.5071482,33.8411307 L42.8205624,29.6676211 L45.7227447,27.7460672 Z M44.505959,25.2752879 L51.5426159,29.1757705 C51.7130021,29.2702171 51.7745633,29.4849065 51.6801167,29.6552926 L45.7020354,40.4400368 L44.5085576,41.3897872 L42.6954435,41.3515452 L41.6823481,40.7900663 L42.7497432,38.9582975 L43.1973878,39.2063516 C43.3264437,39.2778885 43.4835271,39.2780617 43.6145177,39.2068115 L46.6828697,37.5378333 C46.7570776,37.4974692 46.8184258,37.4365316 46.8595572,37.3623286 L49.1729714,33.1888189 C49.2077706,33.1260395 49.2269446,33.0558394 49.2288286,32.984314 L49.3204764,29.5048554 C49.3247678,29.3419301 49.2392904,29.191117 49.0983904,29.1130148 L45.936539,27.360372 C45.795639,27.2822698 45.6224461,27.2896997 45.4865517,27.3796762 L42.5843694,29.3012301 C42.5247108,29.3407305 42.4753384,29.3941914 42.4405392,29.4569708 L40.127125,33.6304804 C40.0859936,33.7046835 40.0668253,33.7890017 40.0719187,33.8733233 L40.2825237,37.3598571 L40.2893266,37.4148468 C40.3130753,37.5410186 40.391035,37.6507649 40.5039589,37.7133596 L40.9505446,37.9609854 L39.9575981,39.8340217 L38.8412013,39.2151038 L38.4303375,38.5608872 L37.8753685,37.7129504 L38.0483556,36.1975328 L44.0264369,25.4127887 C44.1208835,25.2424025 44.3355729,25.1808413 44.505959,25.2752879 Z M27.4563378,24.3077287 C29.2850987,24.3077287 30.7676022,25.8123592 30.7676022,27.668415 C30.7676022,29.5244708 29.2850987,31.0291013 27.4563378,31.0291013 C25.627577,31.0291013 24.1450734,29.5244708 24.1450734,27.668415 C24.1450734,25.8123592 25.627577,24.3077287 27.4563378,24.3077287 Z M16.6006189,9.15026157 C16.682891,9.19047309 16.7329988,9.26966961 16.7323598,9.35590679 C16.732281,9.36588226 16.6994591,10.4407342 16.4476914,11.3105188 C16.2567969,11.9698662 15.9184881,12.7100234 15.8412263,12.8757544 C15.829244,12.9707448 15.7943967,13.2291754 15.7522996,13.3859605 C15.7210782,13.5019842 15.5309367,13.9587624 15.2656583,14.5913038 C15.1497572,14.8677924 15.0402926,15.1289363 15.0096857,15.2101094 C14.9461738,15.3789946 14.8553039,15.7113687 14.7318389,16.2263313 C14.7090461,16.32165 14.6720512,16.5139382 14.629264,16.7366008 C14.4731476,17.5485705 14.3330209,18.241148 14.1995572,18.4927923 L14.1422479,18.6008485 L16.5305645,23.8762097 C16.5587658,23.9385519 16.5565075,24.0097928 16.5243947,24.0704057 L15.7400214,25.5492691 C15.6806468,25.6612193 15.5378844,25.7057828 15.4213553,25.6487414 L11.0116571,23.4901779 L10.3701965,24.662143 L11.5769752,27.6792291 C11.601082,27.7394647 11.5974139,27.8067457 11.5669522,27.8641809 L11.1379926,28.67298 C11.1047772,28.7356071 11.0433939,28.7799498 10.9715752,28.7932296 L10.508236,28.8786983 C10.4564517,28.8882966 10.4028937,28.8809839 10.3559443,28.858002 L8.358821,27.8804028 C8.24220744,27.82332 8.19586254,27.6862899 8.25528011,27.5742587 L8.35436677,27.3874318 L8.02470759,27.2260624 C8.01313912,27.2203996 8.00238169,27.2140097 7.99222339,27.2068914 L7.83814723,27.4173818 C7.77032172,27.5099697 7.64186815,27.5405898 7.53682306,27.4891698 L7.29624954,27.3714082 L7.16958383,27.6102351 C7.11016626,27.7222663 6.96744689,27.7667488 6.85091777,27.7097074 L6.70701532,27.6393017 C6.59041608,27.5821908 6.54407118,27.4451607 6.60348876,27.3331295 L6.73015447,27.0943026 L6.48958095,26.976541 C6.38453586,26.925121 6.3348181,26.8072854 6.37292024,26.7001478 L6.45961218,26.4566725 L6.42437438,26.4426934 L6.0947152,26.281324 L5.99562854,26.4681509 C5.93621096,26.5801821 5.79357603,26.6247059 5.67696247,26.5676231 L3.67983917,25.5900239 C3.63288976,25.567042 3.59525104,25.5297137 3.57289584,25.4838237 L3.37252569,25.0734669 C3.34149475,25.0098419 3.34275584,24.9360691 3.37597117,24.8734419 L3.80493079,24.0646429 C3.83539251,24.0072076 3.8898943,23.96481 3.95478878,23.9481407 L7.20482654,23.1126827 L7.81470609,21.9252586 L3.40500785,19.7666951 C3.28839429,19.7096123 3.24209242,19.5725011 3.30143955,19.460537 L4.08581339,17.9816738 C4.1179531,17.9210747 4.17661825,17.8774451 4.24569338,17.8627201 L10.0918477,16.6181628 L10.1491571,16.5101066 C10.2826208,16.2584622 10.7835655,15.7425065 11.3755684,15.1439048 C11.5378402,14.9797303 11.6781068,14.8379941 11.7450211,14.7641708 C12.1060611,14.3656043 12.3325439,14.0996132 12.437389,13.951063 C12.4877983,13.879481 12.6433679,13.6409056 12.8080761,13.3883082 C12.9450728,13.1781337 13.0683266,12.9893367 13.1735367,12.8297177 L13.3172814,12.6131476 C13.4248954,12.4525338 13.5009562,12.3436045 13.5370642,12.3015946 C13.64435,12.1767197 13.8414937,11.9977337 13.9144427,11.9325867 C14.0085927,11.7751226 14.4329473,11.0770851 14.8760682,10.5412035 C15.4530889,9.84330223 16.3141513,9.20105807 16.35056,9.17412362 C16.4223132,9.12085775 16.5194458,9.11159011 16.6006189,9.15026157 Z M44.4029443,17.5796899 L44.5470712,11.6409949 C44.5567849,11.241101 44.8658133,10.9188265 45.2547172,10.8832031 L45.3457822,10.880166 C45.7456762,10.8898796 46.0679507,11.198908 46.1035741,11.5878119 L46.1066112,11.678877 L45.9179717,19.4448525 C45.900537,20.1626109 45.3045452,20.7303355 44.5867867,20.7129008 C44.5071089,20.7109654 44.427863,20.7017089 44.350042,20.6852936 L44.2345034,20.6553219 L36.8881239,18.3849236 C36.4765488,18.2577264 36.246015,17.8209651 36.3732123,17.4093899 C36.491324,17.027213 36.8763558,16.8011381 37.2602878,16.8726328 L37.348746,16.8944783 L43.3163482,18.7393175 L43.1611546,18.5241425 C37.5669161,10.9409075 30.5037394,8.20514785 21.8368714,10.2440396 C21.4175367,10.3426887 20.997628,10.0827216 20.8989789,9.66338686 C20.8003299,9.24405215 21.060297,8.82414338 21.4796317,8.72549435 C30.7603757,6.54218744 38.4463313,9.51782471 44.4029443,17.5796899 Z M13.260274,14.2078629 L12.0957406,16.4933884 L12.1042292,16.6152191 C12.1359885,16.8483345 12.25644,17.0181742 12.4655836,17.1247382 C12.6747272,17.2313022 12.8829299,17.2289202 13.0901919,17.1175922 L13.1937445,17.0528493 L14.3582779,14.7673238 L13.260274,14.2078629 Z M14.7908087,12.1088244 L14.7547628,12.1356016 C14.6167135,12.2404119 14.1132689,12.6435734 13.7911235,13.1794889 L13.7081715,13.3288146 L13.3498535,14.0320533 L14.4478574,14.5915142 L14.8061754,13.8882756 L14.8730697,13.7454602 C15.1012673,13.2150253 15.1460349,12.622886 15.1547425,12.3934687 L15.156334,12.3402124 L15.15681,12.2953114 L14.7908087,12.1088244 Z" id="Combined-Shape"/>
        </g>
    </g>
</svg>