<svg xmlns="http://www.w3.org/2000/svg" xmlns:xlink="http://www.w3.org/1999/xlink" viewBox="0 0 36 36" version="1.1">
    <title>Icons/Chat/Chat Off</title>
    <g id="Symbols" stroke="none" stroke-width="1" fill="none" fill-rule="evenodd">
        <g id="Group" fill="#95AED6">
            <path d="M24.8684689,13.7647217 L10.8381941,13.7647217 C10.3056999,13.7647217 9.87018928,13.3322608 9.87018928,12.8040364 C9.87018928,12.275812 10.3056999,11.8433511 10.8381941,11.8433511 L24.8684689,11.8433511 C25.4003531,11.8433511 25.8358638,12.275812 25.8358638,12.8040364 C25.8358638,13.3322608 25.4003531,13.7647217 24.8684689,13.7647217 M24.8684689,17.8483966 L13.2572911,17.8483966 C12.724797,17.8483966 12.2892863,17.4159357 12.2892863,16.8877113 C12.2892863,16.3588769 12.724797,15.927026 13.2572911,15.927026 L24.8684689,15.927026 C25.4003531,15.927026 25.8358638,16.3588769 25.8358638,16.8877113 C25.8358638,17.4159357 25.4003531,17.8483966 24.8684689,17.8483966 M24.8684689,21.9320715 L16.643783,21.9320715 C16.1118988,21.9320715 15.6763881,21.4996106 15.6763881,20.9707762 C15.6763881,20.4425518 16.1118988,20.0100909 16.643783,20.0100909 L24.8684689,20.0100909 C25.4003531,20.0100909 25.8358638,20.4425518 25.8358638,20.9707762 C25.8358638,21.4996106 25.4003531,21.9320715 24.8684689,21.9320715 M25.8358638,8 L9.87018928,8 C7.74204265,8 6,9.72923351 6,11.8433511 L6,21.9320715 C6,24.0455791 7.74204265,25.7754226 9.87018928,25.7754226 L25.2307845,25.7754226 L29.5596629,28.4726609 L29.706663,21.9320715 L29.706663,11.8433511 C29.706663,9.72923351 27.9646204,8 25.8358638,8" id="Fill-1"/>
        </g>
    </g>
</svg>