<svg xmlns="http://www.w3.org/2000/svg" xmlns:xlink="http://www.w3.org/1999/xlink" width="44px" height="44px" viewBox="0 0 44 44" version="1.1">
    <title>Icons/Safe/No</title>
    <g id="Symbols" stroke="none" stroke-width="1" fill="none" fill-rule="evenodd">
        <g id="Group" fill="#2df4b1">
            <path d="M22.5269989,9 C23.205535,9 23.7995723,9.4555057 23.975628,10.1108038 L29.161,29.414 L30,29.4140625 C30.8284271,29.4140625 31.5,30.0856354 31.5,30.9140625 L31.5,33.5 C31.5,34.3284271 30.8284271,35 30,35 L14,35 C13.1715729,35 12.5,34.3284271 12.5,33.5 L12.5,30.9140625 C12.5,30.0856354 13.1715729,29.4140625 14,29.4140625 L14.837,29.414 L20.0239746,10.110791 C20.2000349,9.4554992 20.7940691,9 21.4726003,9 L22.5269989,9 Z M25.9015964,24.0130628 L17.9405964,24.0130628 L16.5425964,29.1930628 L27.1955964,29.1930628 L25.9015964,24.0130628 Z M23.3921591,13.9630628 L20.6533714,13.9630628 L19.3655964,18.7320628 L24.5825964,18.7320628 L23.3921591,13.9630628 Z" id="Combined-Shape"/>
        </g>
    </g>
</svg>