<svg xmlns="http://www.w3.org/2000/svg" xmlns:xlink="http://www.w3.org/1999/xlink" width="34px" height="34px" viewBox="0 0 34 34" version="1.1">
    <title>Icons/AllFire</title>
    <g id="Symbols" stroke="none" stroke-width="1" fill="none" fill-rule="evenodd">
        <g id="Icons/AllFire/Regular" fill-rule="nonzero">
            <g id="Icons/48px/Trash" transform="translate(0.000000, -0.500000)">
                <g id="Group-42" transform="translate(0.000000, 0.409756)">
                    <path d="M28.0917545,16.0649899 L30.9200544,16.0647104 C31.3483492,16.0647104 31.6955507,16.411912 31.6955507,16.8402067 C31.6955507,17.2685015 31.3483492,17.6157031 30.9200544,17.6157031 L28.1114937,17.6163132 C27.7971525,23.0611585 23.4715402,27.4303816 18.0453518,27.8132876 L18.0452229,30.6308156 C18.0452229,31.0591104 17.6980214,31.4063119 17.2697266,31.4063119 C16.8414318,31.4063119 16.4942303,31.0591104 16.4942303,30.6308156 L16.4941013,27.8132876 C11.0679129,27.4303816 6.74230067,23.0611585 6.42795939,17.6163132 L3.61939874,17.6157031 C3.19110396,17.6157031 2.84390244,17.2685015 2.84390244,16.8402067 C2.84390244,16.411912 3.19110396,16.0647104 3.61939874,16.0647104 L6.44769862,16.0649899 C6.79274735,11.9311023 9.45323889,8.45516966 13.1284131,6.9379521 L13.8640728,8.40875698 C10.7278563,9.65588876 8.43777615,12.5743989 8.09360252,16.0645173 L9.19991317,16.0647104 C9.62820795,16.0647104 9.97540947,16.411912 9.97540947,16.8402067 C9.97540947,17.2685015 9.62820795,17.6157031 9.19991317,17.6157031 L8.07025098,17.6162005 C8.37933527,22.1555031 11.9735735,25.7928659 16.4940469,26.1693704 L16.4942303,25.0503012 C16.4942303,24.6220064 16.8414318,24.2748049 17.2697266,24.2748049 C17.6980214,24.2748049 18.0452229,24.6220064 18.0452229,25.0503012 L18.0454062,26.1693704 C22.5658797,25.7928659 26.1601179,22.1555031 26.4692022,17.6162005 L25.33954,17.6157031 C24.9112452,17.6157031 24.5640437,17.2685015 24.5640437,16.8402067 C24.5640437,16.411912 24.9112452,16.0647104 25.33954,16.0647104 L26.4458506,16.0645173 C26.0946509,12.5031503 23.7172847,9.53696778 20.48226,8.33447766 L21.2195456,6.86103306 C24.9935417,8.33519357 27.7407411,11.8596423 28.0917545,16.0649899 Z M17.2697266,6.12041719 C18.165518,6.12041719 19.035978,6.22887404 19.8686917,6.43337279 L19.1135041,7.94380829 C18.5177556,7.82290752 17.9011527,7.75944158 17.2697266,7.75944158 C16.5649529,7.75944158 15.8786464,7.83850851 15.2191934,7.98825592 L14.4672265,6.48546499 C15.3612713,6.2473387 16.3006769,6.12041719 17.2697266,6.12041719 Z" id="Combined-Shape" fill="#5171A6"/>
                    <path d="M18.4066463,5.34829857 L20.6487158,9.83243755 C20.9945007,10.5240074 20.7141866,11.3649497 20.0226167,11.7107347 C19.8282191,11.8079335 19.6138608,11.8585366 19.3965177,11.8585366 L14.9123787,11.8585366 C14.1391801,11.8585366 13.5123787,11.2317352 13.5123787,10.4585366 C13.5123787,10.2411935 13.5629819,10.0268352 13.6601807,9.83243755 L15.9022502,5.34829857 C16.2480351,4.65672868 17.0889774,4.37641459 17.7805473,4.72219954 C18.0514856,4.85766872 18.2711771,5.07736021 18.4066463,5.34829857 Z" id="Triangle-Copy" fill="#FF5E5E" transform="translate(17.154448, 7.351220) rotate(-180.000000) translate(-17.154448, -7.351220) "/>
                </g>
            </g>
        </g>
    </g>
</svg>