<svg xmlns="http://www.w3.org/2000/svg" xmlns:xlink="http://www.w3.org/1999/xlink" width="82px" height="81px" viewBox="0 0 82 81" version="1.1">
    
    <g id="Icons/Center-Margema" stroke="none" stroke-width="0" fill="none" fill-rule="evenodd">
        <g id="Group-38" transform="translate(-13.000000, 2.000000)">
            
            <g id="Group-11">
                <g id="Group-34" transform="translate(13.000000, 0.000000)" fill="#F22B2B" stroke="#000000">
                    <path d="M40.75,55.4366661 C42.542,55.4366661 44,56.8946661 44,58.6866661 L44,62.2656661 L45.492,61.9706661 C55.152,60.0626661 62.627,52.5886661 64.535,42.9296661 L64.83,41.4366661 L61.25,41.4366661 C59.458,41.4366661 58,39.9786661 58,38.1866661 C58,36.3946661 59.458,34.9366661 61.25,34.9366661 L64.83,34.9366661 L64.535,33.4436661 C62.627,23.7846661 55.152,16.3106661 45.492,14.4026661 L44,14.1076661 L44,17.6866661 C44,19.4786661 42.542,20.9366661 40.75,20.9366661 C38.958,20.9366661 37.5,19.4786661 37.5,17.6866661 L37.5,14.1076661 L36.008,14.4026661 C26.348,16.3106661 18.873,23.7846661 16.965,33.4436661 L16.67,34.9366661 L20.25,34.9366661 C22.042,34.9366661 23.5,36.3946661 23.5,38.1866661 C23.5,39.9786661 22.042,41.4366661 20.25,41.4366661 L16.67,41.4366661 L16.965,42.9296661 C18.873,52.5886661 26.348,60.0626661 36.008,61.9706661 L37.5,62.2656661 L37.5,58.6866661 C37.5,56.8946661 38.958,55.4366661 40.75,55.4366661 M37.5,75.6866661 L37.5,68.2836661 L36.426,68.1306661 C23.215,66.2566661 12.68,55.7216661 10.807,42.5116661 L10.654,41.4366661 L3.25,41.4366661 C1.458,41.4366661 0,39.9786661 0,38.1866661 C0,36.3946661 1.458,34.9366661 3.25,34.9366661 L10.654,34.9366661 L10.807,33.8616661 C12.68,20.6516661 23.215,10.1166661 36.426,8.24266608 L37.5,8.08966608 L40.75,7.32549946 C40.75,5.53349946 41.6382845,5.53349946 41.6382845,7.32549946 L44,8.08966608 L45.074,8.24266608 C58.285,10.1166661 68.82,20.6516661 70.693,33.8616661 L70.846,34.9366661 L78.25,34.9366661 C80.042,34.9366661 81.5,36.3946661 81.5,38.1866661 C81.5,39.9786661 80.042,41.4366661 78.25,41.4366661 L70.846,41.4366661 L70.693,42.5116661 C68.82,55.7216661 58.285,66.2566661 45.074,68.1306661 L44,68.2836661 L44,75.6866661 C44,77.4786661 42.542,78.9366661 40.75,78.9366661 C38.958,78.9366661 37.5,77.4786661 37.5,75.6866661 Z" id="Combined-Shape" stroke-width="0"/>
                    <path d="M39.9697206,0.293421434 C40.479578,0.123468974 41.05427,0.148020548 41.5729475,0.407359259 C41.979355,0.610563032 42.3088922,0.940100265 42.512096,1.34650781 L42.512096,1.34650781 L53.3444736,23.0112631 C53.6038123,23.5299405 53.6283639,24.1046325 53.4584115,24.6144899 C53.2597012,25.2106206 52.7950936,25.7181188 52.128976,25.9438222 L52.128976,25.9438222 L29.8014213,26.0504116 C29.2215223,26.0504116 28.6965223,25.8153611 28.316497,25.4353359 C27.8720982,24.990937 27.6259494,24.3482882 27.7220927,23.6514314 L27.7220927,23.6514314 L38.7555018,1.34650781 C39.0148405,0.827830387 39.4598632,0.463373894 39.9697206,0.293421434 Z" id="Triangle" stroke-width="0" transform="translate(40.633799, 12.500000) rotate(-180.000000) translate(-40.633799, -12.500000) "/>
                </g>
                
                
            </g>
        </g>
    </g>
</svg>