<svg xmlns="http://www.w3.org/2000/svg" xmlns:xlink="http://www.w3.org/1999/xlink" width="36px" height="36px" viewBox="0 0 36 36" version="1.1">
    <title>Icons/More Commands</title>
    <g id="Symbols" stroke="none" stroke-width="1" fill="none" fill-rule="evenodd">
        <g id="Group" fill="#95AED6">
            <path d="M21.7538077,29.1304866 C21.670647,29.5586101 21.2620303,29.8368391 20.8421202,29.7536784 L16.2272155,28.8337775 C15.8144921,28.7536968 15.5362632,28.3194132 15.6153172,27.9077165 L15.9643867,26.0863949 L18.9889716,26.5391586 L22.1305975,27.1633771 L21.7538077,29.1304866 Z M33.2125287,22.2332831 C32.9712601,21.8041329 32.5328698,21.5310374 32.0482791,21.5074238 L29.1705088,21.3667693 L24.0812802,16.305261 L13.6738745,5.1052621 C13.4028323,4.81471304 13.0291225,4.65352505 12.642066,4.65352505 C12.5773855,4.65352505 12.512705,4.65763175 12.4480244,4.66687183 C11.9932073,4.73052568 11.5969108,5.01388802 11.384389,5.42763809 L2.76237134,22.1624426 C2.54882291,22.578246 2.54574289,23.0731034 2.75415794,23.4899335 C2.96257299,23.9077903 3.35784291,24.196286 3.81265999,24.2650732 L14.4284807,25.8564196 L14.0937846,27.6048474 C13.8884496,28.6664294 14.4192407,29.7341716 15.3832886,30.2002821 C15.5567967,30.2834428 15.7415982,30.3450433 15.9305064,30.3830302 L20.5433577,31.3019045 C21.8041148,31.5534399 23.0279115,30.7146463 23.2732869,29.4333558 L23.65213,27.4652195 L25.8071211,27.8943697 L27.5565755,30.2238956 C27.8265911,30.5842586 28.2444478,30.7916469 28.6848915,30.7916469 C28.7249318,30.7916469 28.7649721,30.7906203 28.8050124,30.7865136 C29.2885764,30.7444199 29.7177266,30.4548975 29.9425685,30.0175339 L33.2381956,23.6223746 C33.4620108,23.185011 33.4537974,22.6614067 33.2125287,22.2332831 L33.2125287,22.2332831 Z" id="Megaphone"/>
        </g>
    </g>
</svg>