<svg xmlns="http://www.w3.org/2000/svg" xmlns:xlink="http://www.w3.org/1999/xlink" width="75px" height="75px" viewBox="0 0 75 75" version="1.1">
    <title>Icons/Status Bar/Protection system/On</title>
    <defs>
        <polygon id="path-1" points="0 0 31.8205748 0 31.8205748 39.5294118 0 39.5294118"/>
    </defs>
    <g id="Icons/Status-Bar/Protection-system/On" stroke="none" stroke-width="1" fill="none" fill-rule="evenodd">
        <rect id="BG" x="0" y="0" width="75" height="75"/>
        <g id="Page-1" transform="translate(22.000000, 18.000000)">
            <g id="Group-3">
                <mask id="mask-2" fill="white">
                    <use xlink:href="#path-1"/>
                </mask>
                <g id="Clip-2"/>
                <path d="M15.9075848,1.48718431 C18.3099308,3.71254379 20.5591273,4.9979817 22.9614733,5.31275294 C25.2527109,5.61141961 27.6790804,5.04043922 30.4462827,4.05513203 C30.4177548,13.5158379 30.0498956,20.3676026 28.1054968,25.531315 C26.1265642,30.7872627 22.5410628,34.5088837 15.9075848,38.103132 C9.27560821,34.5088837 5.69010674,30.7887268 3.71117419,25.529851 C1.76827683,20.3632105 1.40342053,13.5041255 1.37489267,4.03024314 C4.14059355,5.02726275 6.56546158,5.6055634 8.85519765,5.30836078 C11.2575437,4.9979817 13.5067402,3.71107974 15.9075848,1.48718431 M15.8970745,-0.000380794652 C15.7229044,0.00263529412 15.5562416,0.0714457516 15.4331214,0.192962092 C12.9677138,2.59693595 10.888183,3.72425621 8.6795261,4.01121046 C6.46936774,4.29670065 4.04149677,3.72864837 0.921449853,2.51787712 C0.57611261,2.38318431 0.184229912,2.54862222 0.0475964809,2.88535425 C0.0160656891,2.96294902 -0.000450439883,3.0434719 -0.000450439883,3.12692288 C0.00405395894,13.1776418 0.322364809,20.3266092 2.44994252,25.979315 C4.57601877,31.6320209 8.55190147,35.7050144 15.586271,39.4500601 C15.785966,39.5569359 16.0292035,39.5569359 16.2304,39.4500601 C23.2647695,35.7050144 27.2406522,31.6320209 29.3682299,25.9822431 C31.4958076,20.3339294 31.8156199,13.1922824 31.8216258,3.15473987 C31.8216258,2.79311895 31.5213326,2.49738039 31.1489689,2.49738039 C31.0648868,2.49738039 30.9808047,2.51348497 30.901227,2.54423007 C27.7811801,3.74182484 25.3518076,4.30255686 23.1401478,4.01413856 C20.9299894,3.72425621 18.8519601,2.5984 16.3835496,0.192962092 C16.2544235,0.0670535948 16.0802534,-0.00322091503 15.8970745,-0.000380794652" id="Fill-1" fill="#00DF9D" mask="url(#mask-2)"/>
            </g>
            <path d="M4.44309514,23.0264648 C3.26892867,18.3597016 2.64181691,12.0342674 2.86991653,5.60967756 C8.15388626,7.20368296 12.5305808,6.27496691 16,2.82352941 L16.2435246,3.06023426 C19.6734771,6.31679864 23.9689968,7.16661307 29.1300835,5.60967756 C29.3581831,12.0342674 28.7310713,18.3597016 27.5569049,23.0264648 C26.1538605,28.6029109 22.3015588,33.1664121 16,36.7169685 L16,36.7169685 C9.69844116,33.1664121 5.84613954,28.6029109 4.44309514,23.0264648 Z" id="Combined-Shape" fill="#00DF9D"/>
            <g id="Group-17" transform="translate(3.764706, 7.529412)" stroke="#0C1C2F" stroke-linecap="round" stroke-linejoin="round" stroke-width="2.5">
                <polyline id="Path-4" points="7.78609626 12.3727002 11.0301158 15.5721925 17.7967914 8.89839572"/>
            </g>
        </g>
    </g>
</svg>