<svg xmlns="http://www.w3.org/2000/svg" xmlns:xlink="http://www.w3.org/1999/xlink" width="35px" height="36px" viewBox="0 0 35 36" version="1.1">
    <title>Icons/Targets/Tank</title>
    <g id="Icons/Targets/Tank" stroke="none" stroke-width="1" fill="none" fill-rule="evenodd">
        <g id="Tank" transform="translate(17.500000, 18.000000) rotate(-45.000000) translate(-17.500000, -18.000000) translate(9.000000, 2.000000)" fill="#FFFFFF">
            <g id="Body" transform="translate(0.594064, 7.562710)">
                <path d="M14.2758603,1.33602817 L15.2389131,3.5627418 L15.2389131,22.5264312 C15.2389131,23.1210945 14.7568432,23.6031644 14.1621799,23.6031644 L1.86985359,23.6031644 C1.27519024,23.6031644 0.793120353,23.1210945 0.793120353,22.5264312 L0.793120353,3.5627418 L0.793120353,3.5627418 L1.7561732,1.33602817 L4.40456854,-7.30082661e-13 L11.6274649,-7.30082661e-13 L14.2758603,1.33602817 Z" id="Fill-1"/>
                <polygon id="Fill-1-Copy" points="14.2896522 1.37685126 15.2389131 3.67160335 1 3.67160335 1.94926087 1.37685126 4.55972828 0 11.6791848 0"/>
                <polygon id="Fill-1-Copy-2" points="12.0502845 2.52422731 12.7065614 3.67160335 2.8624075 3.67160335 3.51868443 2.52422731 4.70818636 1.83580168 10.8607826 1.83580168"/>
            </g>
            <g id="Torrent" transform="translate(2.863521, 0.581543)" stroke="#3C556E" stroke-linecap="round" stroke-linejoin="round" stroke-width="0.9">
                <path d="M6.46061357,0.380269477 L6.66369357,11.0269483 L8.21089485,11.0269483 L11.3052974,15.6837705 L11.3052974,23.2233874 L8.65295235,28.101963 L2.685176,28.101963 L0.0328309595,23.2233874 L0.0328309595,15.6837705 L3.12723351,11.0269483 L4.67443479,11.0269483 L4.91483399,0.380269477 L6.46061357,0.380269477 Z" id="Combined-Shape"/>
            </g>
        </g>
    </g>
</svg>