<svg xmlns="http://www.w3.org/2000/svg" xmlns:xlink="http://www.w3.org/1999/xlink" width="24px" height="24px" viewBox="0 0 24 24" version="1.1">
    <title>Icons/Clock </title>
    <g id="Symbols" stroke="none" stroke-width="1" fill="none" fill-rule="evenodd">
        <g id="Icons/Clock" fill="#DFEBFF" stroke="#ffffff" stroke-width="0.3">
            <g id="Group">
                <path d="M12.1007019,5.60041434 C15.6841717,5.60041434 18.6004143,8.51665699 18.6004143,12.1007019 C18.6004143,15.6847469 15.6841717,18.6004143 12.1007019,18.6004143 C8.51665699,18.6004143 5.60041434,15.6847469 5.60041434,12.1007019 C5.60041434,8.51665699 8.51665699,5.60041434 12.1007019,5.60041434 Z M12.1007019,6.46320802 C8.9923439,6.46320802 6.46320802,8.9923439 6.46320802,12.1007019 C6.46320802,15.20906 8.9923439,17.7376207 12.1007019,17.7376207 C15.2084848,17.7376207 17.7376207,15.20906 17.7376207,12.1007019 C17.7376207,8.9923439 15.2084848,6.46320802 12.1007019,6.46320802 Z M11.8874193,8.4185861 C12.1017373,8.4185861 12.2797144,8.57513139 12.3131666,8.78003799 L12.3188162,8.84998295 L12.3188162,12.0825833 L14.9474609,12.0825833 C15.185592,12.0825833 15.3788578,12.2758491 15.3788578,12.5139801 C15.3788578,12.7282981 15.2223125,12.9062751 15.0174059,12.9397274 L14.9474609,12.945377 L11.4560225,12.945377 L11.4560225,8.84998295 C11.4560225,8.61185189 11.6492883,8.4185861 11.8874193,8.4185861 Z" id="Clock"/>
            </g>
        </g>
    </g>
</svg>