<svg xmlns="http://www.w3.org/2000/svg" xmlns:xlink="http://www.w3.org/1999/xlink" width="24px" height="24px" viewBox="0 0 24 24" version="1.1">
    <title>Content/WiFi/Line </title>
    <g id="Content/WiFi/Line" stroke="none" stroke-width="1" fill="none" fill-rule="evenodd">
        <g id="Group" transform="translate(3.000000, 5.000000)" fill="#FFFFFF" fill-rule="nonzero">
            <g id="Group-3" transform="translate(0.832366, 0.193758)">
                <path d="M10.7368774,9.9610515 C10.7975824,9.89954775 10.8015761,9.79890525 10.7440661,9.735804 C10.1793499,9.11996775 9.38619112,8.73656775 8.49877987,8.73656775 C7.61136862,8.73656775 6.81900862,9.11996775 6.25429237,9.735804 C6.19598362,9.79890525 6.20077612,9.89954775 6.26068237,9.9610515 L8.38535737,12.1104878 C8.44765987,12.1743878 8.54989987,12.1743878 8.61220237,12.1104878 L10.7368774,9.9610515 Z M8.49877987,6.6861765 C9.90537862,6.6861765 11.2297061,7.22213775 12.2632886,8.1974115 C12.3255911,8.256519 12.4206424,8.256519 12.4813474,8.195814 L13.8927386,6.767649 C13.9558399,6.70295025 13.9550411,6.5967165 13.8903424,6.53361525 C10.8822499,3.63095775 6.11530987,3.6317565 3.12399112,6.55118775 C3.05929237,6.614289 3.05929237,6.72052275 3.12239362,6.78442275 L4.53298612,8.21258775 C4.59369112,8.2740915 4.69033987,8.272494 4.75264237,8.21258775 C5.76945112,7.22213775 7.09297987,6.6861765 8.49877987,6.6861765 L8.49877987,6.6861765 Z M16.9335799,3.690864 L15.5229874,5.119029 C15.4614836,5.18053275 15.3632374,5.179734 15.3009349,5.119029 C11.5196524,1.4112315 5.46033487,1.4048415 1.67905237,5.112639 C1.61674987,5.173344 1.51850362,5.17414275 1.45779862,5.112639 L0.047206125,3.690864 C-0.015895125,3.62776275 -0.015096375,3.521529 0.048803625,3.4592265 C4.74625237,-1.152756 12.2513074,-1.152756 16.9319824,3.45842775 C16.9950836,3.521529 16.9958824,3.626964 16.9335799,3.690864 L16.9335799,3.690864 Z" id="Fill-1"/>
            </g>
        </g>
    </g>
</svg>