<svg xmlns="http://www.w3.org/2000/svg">    
    <g id="New-Bakash" stroke="none" stroke-width="1" fill="none" fill-rule="evenodd">
        <g id="New-Bakash-4" transform="translate(-735.000000, -250.000000)" fill="#102235">
            <g id="Popups/Bakash-Expansion-full" transform="translate(723.000000, 237.000000)">
                <g id="14X14/Close2" transform="translate(6.000000, 7.000000)">
                    <path d="M18.9464286,6 C19.5217252,6 19.9880952,6.26649717 19.9880952,6.5952381 L19.988,17.904 L30.4047619,17.9047619 C30.7335028,17.9047619 31,18.371132 31,18.9464286 C31,19.5217252 30.7335028,19.9880952 30.4047619,19.9880952 L19.988,19.988 L19.9880952,30.4047619 C19.9880952,30.7335028 19.5217252,31 18.9464286,31 C18.371132,31 17.9047619,30.7335028 17.9047619,30.4047619 L17.904,19.988 L6.5952381,19.9880952 C6.26649717,19.9880952 6,19.5217252 6,18.9464286 C6,18.371132 6.26649717,17.9047619 6.5952381,17.9047619 L17.904,17.904 L17.9047619,6.5952381 C17.9047619,6.26649717 18.371132,6 18.9464286,6 Z" id="Combined-Shape-Copy" transform="translate(18.500000, 18.500000) rotate(-315.000000) translate(-18.500000, -18.500000) "/>
                </g>
            </g>
        </g>
    </g>
</svg>