<svg xmlns="http://www.w3.org/2000/svg" xmlns:xlink="http://www.w3.org/1999/xlink" viewBox="0 0 248 179" version="1.1">    
    <defs>
        <polygon id="path-1" points="5.9838868e-05 0 66.4857694 0 66.4857694 45.0945915 5.9838868e-05 45.0945915"/>
        <polygon id="path-3" points="7.44982536e-05 -3.69482223e-13 82.7735192 -3.69482223e-13 82.7735192 45.0945915 7.44982536e-05 45.0945915"/>
    </defs>
    <g id="Styleguide" stroke="none" stroke-width="1" fill="none" fill-rule="evenodd">
        <g id="Bakash-Exstension" transform="translate(-1654.000000, -3543.000000)">
            <g id="Popups/Bakash-Expansion-full-Copy-3" transform="translate(1488.000000, 3228.500000)">
                <g id="Icons/Pagaz-Configuration-off" transform="translate(166.000000, 315.000000)">
                    <g id="Group-15">
                        <g id="Icons/Pagaz-Configuration" opacity="0.25016276" transform="translate(116.000000, 82.333648) rotate(-30.000000) translate(-116.000000, -82.333648) translate(-3.000000, 56.833648)">
                            <g id="Group">
                                <g id="Icons/Pagaz-Configuration">
                                    <g id="Group-11">
                                        <g id="Group-2">
                                            <path d="M50.5838428,1 L60.2662026,0 L60.2662026,0 L234.001631,0 C235.4928,1.70165941e-16 236.701631,1.20883118 236.701631,2.7 L236.701631,48.3 C236.701631,49.7911688 235.4928,51 234.001631,51 L60.2662026,51 L60.2662026,51 L50.5838428,50 C38.8523378,48.2456913 31.0216792,46.7547877 27.091867,45.5272893 C13.6256838,41.321053 4.60186423,34.8119565 0.0204081633,26 C4.57445195,17.0731098 13.5571532,10.3779421 26.9685118,5.91449704 C30.9177004,4.60016436 38.7894775,2.96199868 50.5838428,1 L50.5838428,1 Z" id="Rectangle" fill="#82989C"/>
                                            <path d="M50.5634346,1 L60.2457945,0 L60.2457945,0 L234.001631,0 C235.4928,-1.57229217e-14 236.701631,1.20883118 236.701631,2.7 L236.701631,23.7942906 C236.701631,25.2854594 235.4928,26.4942906 234.001631,26.4942906 C233.99973,26.4942906 233.997829,26.4942886 233.995928,26.4942846 L0,26 L0,26 C4.55404379,17.0731098 13.536745,10.3779421 26.9481036,5.91449704 C30.8972923,4.60016436 38.7690693,2.96199868 50.5634346,1 L50.5634346,1 Z" id="Rectangle-Copy-7" fill="#95AAAE"/>
                                        </g>
                                        <g id="Group-9" transform="translate(93.570168, 0.000000)">
                                            <g id="Group-25" transform="translate(74.761928, 0.000000)">
                                                <rect id="Rectangle" fill="#FFFEF2" x="0.305991111" y="0" width="13.9633581" height="51" rx="1.45714286"/>
                                                <rect id="Rectangle-Copy-6" fill="#F5F3DF" x="0.305991111" y="26.4794633" width="13.9633581" height="24.5205367" rx="1.45714286"/>
                                                <path d="M10.324544,0 L12.8748223,0 C13.6795801,-1.47831606e-16 14.3319651,0.652385079 14.3319651,1.45714286 L14.3319651,49.5428571 C14.3319651,50.3476149 13.6795801,51 12.8748223,51 L10.324544,51 L10.324544,51 L10.324544,0 Z" id="Rectangle" fill="#657C80"/>
                                            </g>
                                            <g id="Group-25" transform="translate(101.812021, 0.000000)">
                                                <rect id="Rectangle" fill="#FFFEF2" x="0.305991111" y="0" width="13.9633581" height="51" rx="1.45714286"/>
                                                <rect id="Rectangle-Copy-15" fill="#F5F3DF" x="0.305991111" y="26.4794633" width="13.9633581" height="24.5205367" rx="1.45714286"/>
                                                <rect id="Rectangle-Copy-16" fill="#F3F3EC" x="27.371966" y="26.4794633" width="13.9633581" height="24.5205367" rx="1.45714286"/>
                                                <path d="M10.324544,0 L12.8748223,0 C13.6795801,-1.47831606e-16 14.3319651,0.652385079 14.3319651,1.45714286 L14.3319651,49.5428571 C14.3319651,50.3476149 13.6795801,51 12.8748223,51 L10.324544,51 L10.324544,51 L10.324544,0 Z" id="Rectangle" fill="#657C80"/>
                                            </g>
                                            <g id="Group-25" transform="translate(128.862114, 0.000000)">
                                                <rect id="Rectangle" fill="#FFFEF2" x="0.305991111" y="0" width="13.9633581" height="51" rx="1.45714286"/>
                                                <rect id="Rectangle-Copy-17" fill="#F5F3DF" x="0.368607066" y="26.4794633" width="13.9633581" height="24.5205367" rx="1.45714286"/>
                                                <path d="M10.324544,0 L12.8748223,0 C13.6795801,7.42129993e-17 14.3319651,0.652385079 14.3319651,1.45714286 L14.3319651,49.5428571 C14.3319651,50.3476149 13.6795801,51 12.8748223,51 L10.324544,51 L10.324544,51 L10.324544,0 Z" id="Rectangle" fill="#657C80"/>
                                            </g>
                                            <g id="Group" transform="translate(0.619071, 14.000000)" fill="#FFFEF2">
                                                <polygon id="Fill-3" points="30.6099053 17.2743749 15.7886344 17.4444332 15.2321509 17.4444332 0.0890538033 17.2781976 8.96555008 13.7695824 5.40304889 6.33407052 12.7060906 9.88117818 15.4200974 0.25 18.1171853 9.87773779 25.4503868 6.34783208 21.8507376 13.7695824"/>
                                            </g>
                                        </g>
                                    </g>
                                    <g id="Group-34" transform="translate(9.037106, 20.000000)" fill="#FFFEF2">
                                        <path d="M5.22109675,1.22109675 C6.10363158,1.77345506 6.88026718,2.50407863 7.55100354,3.41296745 C9.35229817,5.85383191 10.5259855,8.09957088 11.0720656,10.1501843 C11.1431843,10.4170416 10.9844548,10.690995 10.717584,10.7620629 C10.6756043,10.7732421 10.6323468,10.7789033 10.5889041,10.7789033 L-0.0410451347,10.7789033 C-0.31723378,10.778987 -0.541128915,10.5550919 -0.541128915,10.2789033 C-0.541128915,10.2146973 -0.528764818,10.1510921 -0.504711963,10.0915617 C0.770856563,6.93455361 1.90293417,4.70814801 2.89152086,3.41234488 C3.57842044,2.51198215 4.35494573,1.7815661 5.22109675,1.22109675 Z" id="Triangle" transform="translate(5.221097, 6.000000) rotate(-90.000000) translate(-5.221097, -6.000000) "/>
                                    </g>
                                </g>
                                <rect id="Rectangle" fill="#FFFEF2" x="58.1280148" y="7" width="5.00927644" height="5" rx="1"/>
                                <rect id="Rectangle-Copy-4" fill="#FFFEF2" x="58.1280148" y="22.51" width="5.00927644" height="5" rx="1"/>
                                <rect id="Rectangle-Copy-5" fill="#FFFEF2" x="58.1280148" y="38.02" width="5.00927644" height="5" rx="1"/>
                            </g>
                        </g>
                        <g id="Group-10" transform="translate(3.000000, 4.000000)">
                            <g id="Group-6" transform="translate(8.250000, 0.000000)"/>
                            <g id="Group-5" transform="translate(83.500000, 86.500000)">
                                <path d="M32.375,0.5 C49.9790764,0.5 64.25,14.7709236 64.25,32.375 C64.25,40.1457406 61.4693239,47.2670194 56.8487261,52.798082 L60.0733482,56.0941266 L76.6142862,73.0038217 C78.7952379,75.2333949 78.7952379,78.8482471 76.6142862,81.0778202 C74.4333343,83.3073933 70.8973128,83.3073933 68.7163608,81.0778202 L48.1666948,60.0695231 C43.5114059,62.7297408 38.1207407,64.25 32.375,64.25 C14.7709236,64.25 0.5,49.9790764 0.5,32.375 C0.5,14.7709236 14.7709236,0.5 32.375,0.5 Z M32.375,8 C18.9130592,8 8,18.9130592 8,32.375 C8,45.8369408 18.9130592,56.75 32.375,56.75 C45.8369408,56.75 56.75,45.8369408 56.75,32.375 C56.75,18.9130592 45.8369408,8 32.375,8 Z" id="Combined-Shape" fill="#E0E6E7"/>
                                <g id="Group-7" opacity="0.596121652" transform="translate(7.500000, 7.500000)" fill-rule="nonzero">
                                    <path d="M49.25,24.8361624 C49.2674916,36.1828608 41.452766,46.0408125 30.4012463,48.613045 C19.3497265,51.1852774 7.98499937,45.7913282 2.99009728,35.6031112 C-2.00480481,25.4148943 0.691477513,13.1276171 9.49339435,5.96681763 C18.2953111,-1.19398181 30.8743894,-1.33397387 39.8334968,5.62916384 C45.7658826,10.237215 49.2404858,17.3244434 49.25,24.8361624 L49.25,24.8361624 Z" id="Shape" fill="#F7FAFF"/>
                                    <path d="M40.25,7.39684337 C40.2432218,16.6244669 35.8696299,25.3029507 28.4606317,30.7903944 C21.0516332,36.2778384 11.4838884,37.9249477 2.67000577,35.23031 C-1.96967425,24.9135014 1.01017014,12.7584149 9.89337588,5.76545302 C18.7765816,-1.227509 31.2761292,-1.25797802 40.1932326,5.69159354 C40.2310775,6.26001015 40.25,6.82842676 40.25,7.39684337 L40.25,7.39684337 Z" id="Shape" fill="#FFFFFF"/>
                                </g>
                            </g>
                            <g id="Group-3-Copy" transform="translate(34.250000, 42.000000) scale(-1, 1) translate(-34.250000, -42.000000) translate(0.750000, 19.000000)">
                                <mask id="mask-2" fill="white">
                                    <use xlink:href="#path-1"/>
                                </mask>
                                <g id="Clip-2"/>
                                <path d="M62.6004916,25.5747898 L55.0509208,25.5747898 C53.4981022,25.141836 52.375525,23.9121865 52.375525,22.4557035 C52.375525,20.7158051 53.9759155,19.2946859 56.001162,19.175712 L60.9109411,19.175712 C63.0477871,19.175712 64.7959796,17.6995264 64.7959796,15.8957205 C64.7959796,14.0914094 63.0477871,12.6152238 60.9109411,12.6152238 L44.0037682,12.6152238 C42.2187747,12.3952105 40.8466695,11.1011484 40.8466695,9.53301687 C40.8466695,8.13968354 41.9294538,6.96030115 43.423032,6.56043772 L44.6207069,6.56043772 C46.7575529,6.56043772 48.5060446,5.08425209 48.5060446,3.2801936 C48.5060446,1.47613511 46.7575529,-5.05197e-05 44.6207069,-5.05197e-05 L3.88509834,-5.05197e-05 C1.74825237,-5.05197e-05 5.9838868e-05,1.47613511 5.9838868e-05,3.2801936 C5.9838868e-05,5.08425209 1.74825237,6.56043772 3.88509834,6.56043772 L26.009323,6.56043772 C27.5026019,6.96055375 28.5850871,8.13993614 28.5850871,9.53301687 C28.5850871,11.1011484 27.2129818,12.3952105 25.4279884,12.6152238 L24.3571718,12.6152238 C24.3514872,12.6147186 24.3455033,12.6142134 24.3398186,12.6134556 C24.3416137,12.6142134 24.3437081,12.6147186 24.3455033,12.6152238 L24.285066,12.6152238 C22.14822,12.6152238 20.4000275,14.0914094 20.4000275,15.8957205 C20.4000275,17.6995264 22.14822,19.175712 24.285066,19.175712 L43.9098211,19.175712 C45.9350676,19.2946859 47.5354582,20.7158051 47.5354582,22.4557035 C47.5354582,23.9121865 46.412881,25.141836 44.8603616,25.5747898 L11.0343471,25.5747898 C8.89750112,25.5747898 7.14900939,27.0509754 7.14900939,28.8550339 C7.14900939,30.6590924 8.89750112,32.1352781 11.0343471,32.1352781 L15.4929411,32.1352781 C15.1596386,32.1352781 14.8377055,32.174936 14.5286378,32.2423798 C14.5358184,32.2423798 14.5426999,32.2413694 14.5498806,32.2413694 C16.5900868,32.2413694 18.2443323,33.6379865 18.2443323,35.3604557 C18.2443323,37.0831775 16.5900868,38.479542 14.5498806,38.479542 C14.3619865,38.479542 14.1791788,38.4638809 13.9987646,38.441147 C14.0977979,38.4760056 14.199524,38.5060648 14.3021477,38.5343559 L13.3390411,38.5343559 C11.9768093,38.5343559 10.8623103,39.4752853 10.8623103,40.6253662 L10.8623103,43.0035811 C10.8623103,44.1536621 11.9768093,45.0945915 13.3390411,45.0945915 L40.1211232,45.0945915 C41.4833551,45.0945915 42.5981532,44.1536621 42.5981532,43.0035811 L42.5981532,40.6253662 C42.5981532,39.4752853 41.4833551,38.5343559 40.1211232,38.5343559 L34.4011258,38.5343559 C34.4953721,38.5083382 34.5893191,38.4818154 34.6805733,38.4502406 C34.5228979,38.4674172 34.3634273,38.479542 34.2000672,38.479542 C32.159861,38.479542 30.5056155,37.0831775 30.5056155,35.3604557 C30.5056155,33.6435437 32.14909,32.251726 34.1800212,32.2423798 C33.8709535,32.174936 33.5487212,32.1352781 33.2157179,32.1352781 L62.6004916,32.1352781 C64.7373375,32.1352781 66.4858293,30.6590924 66.4858293,28.8550339 C66.4858293,27.0509754 64.7373375,25.5747898 62.6004916,25.5747898" id="Fill-1" fill="#D2D9DA" opacity="0.541759673" mask="url(#mask-2)"/>
                            </g>
                            <g id="Group-3" transform="translate(202.875000, 122.750000) rotate(-180.000000) translate(-202.875000, -122.750000) translate(161.375000, 99.750000)">
                                <mask id="mask-4" fill="white">
                                    <use xlink:href="#path-3"/>
                                </mask>
                                <g id="Clip-2"/>
                                <path d="M77.9364221,25.5747898 L68.53735,25.5747898 C66.6041204,25.141836 65.2065331,23.9121865 65.2065331,22.4557035 C65.2065331,20.7158051 67.1989889,19.2946859 69.7203823,19.175712 L75.832964,19.175712 C78.4932966,19.175712 80.6697631,17.6995264 80.6697631,15.8957205 C80.6697631,14.0914094 78.4932966,12.6152238 75.832964,12.6152238 L54.783855,12.6152238 C52.5615721,12.3952105 50.8533272,11.1011484 50.8533272,9.53301687 C50.8533272,8.13968354 52.201373,6.96030115 54.0608495,6.56043772 L55.551932,6.56043772 C58.2122646,6.56043772 60.3891036,5.08425209 60.3891036,3.2801936 C60.3891036,1.47613511 58.2122646,-5.05197e-05 55.551932,-5.05197e-05 L4.83687359,-5.05197e-05 C2.17654097,-5.05197e-05 7.44982533e-05,1.47613511 7.44982533e-05,3.2801936 C7.44982533e-05,5.08425209 2.17654097,6.56043772 4.83687359,6.56043772 L32.3811128,6.56043772 C34.2402167,6.96055375 35.5878901,8.13993614 35.5878901,9.53301687 C35.5878901,11.1011484 33.8796451,12.3952105 31.6573622,12.6152238 L30.324216,12.6152238 C30.3171387,12.6147186 30.3096888,12.6142134 30.3026115,12.6134556 C30.3048465,12.6142134 30.3074539,12.6147186 30.3096888,12.6152238 L30.2344456,12.6152238 C27.574113,12.6152238 25.3976465,14.0914094 25.3976465,15.8957205 C25.3976465,17.6995264 27.574113,19.175712 30.2344456,19.175712 L54.6668927,19.175712 C57.1882861,19.2946859 59.1807419,20.7158051 59.1807419,22.4557035 C59.1807419,23.9121865 57.7831547,25.141836 55.8502975,25.5747898 L13.7375524,25.5747898 C11.0772198,25.5747898 8.90038082,27.0509754 8.90038082,28.8550339 C8.90038082,30.6590924 11.0772198,32.1352781 13.7375524,32.1352781 L19.2884173,32.1352781 C18.873462,32.1352781 18.4726614,32.174936 18.0878779,32.2423798 C18.0968177,32.2423798 18.105385,32.2413694 18.1143248,32.2413694 C20.6543427,32.2413694 22.7138469,33.6379865 22.7138469,35.3604557 C22.7138469,37.0831775 20.6543427,38.479542 18.1143248,38.479542 C17.8804003,38.479542 17.6528081,38.4638809 17.4281959,38.441147 C17.5514905,38.4760056 17.6781375,38.5060648 17.805902,38.5343559 L16.6068526,38.5343559 C14.9108999,38.5343559 13.5233699,39.4752853 13.5233699,40.6253662 L13.5233699,43.0035811 C13.5233699,44.1536621 14.9108999,45.0945915 16.6068526,45.0945915 L49.9500358,45.0945915 C51.6459886,45.0945915 53.033891,44.1536621 53.033891,43.0035811 L53.033891,40.6253662 C53.033891,39.4752853 51.6459886,38.5343559 49.9500358,38.5343559 L42.8287478,38.5343559 C42.9460826,38.5083382 43.0630448,38.4818154 43.1766546,38.4502406 C42.9803518,38.4674172 42.7818139,38.479542 42.5784337,38.479542 C40.0384157,38.479542 37.9789115,37.0831775 37.9789115,35.3604557 C37.9789115,33.6435437 40.025006,32.251726 42.5534768,32.2423798 C42.1686933,32.174936 41.7675202,32.1352781 41.3529374,32.1352781 L77.9364221,32.1352781 C80.5967548,32.1352781 82.7735937,30.6590924 82.7735937,28.8550339 C82.7735937,27.0509754 80.5967548,25.5747898 77.9364221,25.5747898" id="Fill-1" fill="#D2D9DA" opacity="0.541759673" mask="url(#mask-4)"/>
                            </g>
                        </g>
                    </g>
                    <text id="?" font-family="Arial-BoldMT, Arial" font-size="26" font-weight="bold" fill="#96A0A1">
                        <tspan x="110.559082" y="132">?</tspan>
                    </text>
                </g>
            </g>
        </g>
    </g>
</svg>