<svg xmlns="http://www.w3.org/2000/svg" xmlns:xlink="http://www.w3.org/1999/xlink" viewBox="0 0 16 18" version="1.1">
    <title>Icons/frequency</title>
    <defs>
        <path d="M12.0249079,12.2505543 C12.748204,12.2505543 13.3345513,12.8834112 13.3345513,13.6640798 C13.3345513,14.4447484 12.748204,15.0776053 12.0249079,15.0776053 L8.09597759,15.0776053 C7.93278886,15.0776053 7.77657131,15.0453907 7.63248618,14.986532 C5.45550983,14.648201 4.30036354,14.1818469 4.16704729,13.5874698 C4.35812493,13.0624185 5.5196589,12.6445902 7.65164921,12.3339848 C7.79038499,12.279986 7.93999681,12.2505543 8.09597759,12.2505543 L12.0249079,12.2505543 Z M11.6677324,6.59645233 C12.5882911,6.59645233 13.3345513,7.44026156 13.3345513,8.48115299 C13.3345513,9.52204443 12.5882911,10.3658537 11.6677324,10.3658537 L6.66727566,10.3658537 C6.45958092,10.3658537 6.26075858,10.3229008 6.0773775,10.2444225 C3.30668034,9.79331454 1.83649414,9.17150912 1.66681892,8.37900626 C1.91000864,7.67893787 3.3883246,7.12183346 6.10176682,6.70769302 C6.27833963,6.6356946 6.46875467,6.59645233 6.66727566,6.59645233 L11.6677324,6.59645233 Z M12.0249079,1.88470067 C12.748204,1.88470067 13.3345513,2.51755759 13.3345513,3.29822616 C13.3345513,4.07889474 12.748204,4.71175166 12.0249079,4.71175166 L8.09597759,4.71175166 C7.93278886,4.71175166 7.77657131,4.679537 7.63248618,4.6206783 C5.45550983,4.28234732 4.30036354,3.81599326 4.16704729,3.22161611 C4.35812493,2.69656482 5.5196589,2.27873651 7.65164921,1.96813118 C7.79038499,1.91413237 7.93999681,1.88470067 8.09597759,1.88470067 L12.0249079,1.88470067 Z" id="path-1"/>
        <filter x="-60.0%" y="-37.9%" width="220.0%" height="206.1%" filterUnits="objectBoundingBox" id="filter-2">
            <feOffset dx="0" dy="2" in="SourceAlpha" result="shadowOffsetOuter1"/>
            <feGaussianBlur stdDeviation="2" in="shadowOffsetOuter1" result="shadowBlurOuter1"/>
            <feColorMatrix values="0 0 0 0 0   0 0 0 0 0   0 0 0 0 0  0 0 0 0.0610795455 0" type="matrix" in="shadowBlurOuter1"/>
        </filter>
    </defs>
    <g id="New-Bakash" stroke="none" stroke-width="1" fill="none" fill-rule="evenodd">
        <g id="New-Bakash-4" transform="translate(-932.000000, -468.000000)">
            <g id="Popups/Bakash-Expansion-full" transform="translate(723.000000, 237.000000)">
                <g id="Popup/Plan-" transform="translate(20.000000, 199.000000)">
                    <g id="Plan/Fire-Plan/Plan-Light-2" transform="translate(93.000000, 28.000000)">
                        <g id="Combined-Shape" transform="translate(96.000000, 4.518847)">
                            <use fill="black" fill-opacity="1" filter="url(#filter-2)" xlink:href="#path-1"/>
                            <use fill="#3C556E" fill-rule="evenodd" xlink:href="#path-1"/>
                        </g>
                    </g>
                </g>
            </g>
        </g>
    </g>
</svg>