<svg xmlns="http://www.w3.org/2000/svg" xmlns:xlink="http://www.w3.org/1999/xlink" viewBox="0 0 5 20">    
    <g id="New-Bakash" stroke="none" stroke-width="1" fill="none" fill-rule="evenodd">
        <g id="New-Bakash-4" transform="translate(-765.000000, -493.000000)" fill="#567798">
            <g id="Popups/Bakash-Expansion-full" transform="translate(723.000000, 237.000000)">
                <g id="Popup/Plan-" transform="translate(20.000000, 199.000000)">
                    <g id="SystemOperation/Actions" transform="translate(21.500000, 57.000000)">
                        <g id="Icons/Actions" transform="translate(0.900000, 0.000000)">
                            <path d="M2,16 C3.1045695,16 4,16.8954305 4,18 C4,19.1045695 3.1045695,20 2,20 C0.8954305,20 0,19.1045695 0,18 C0,16.8954305 0.8954305,16 2,16 Z M2,8 C3.1045695,8 4,8.8954305 4,10 C4,11.1045695 3.1045695,12 2,12 C0.8954305,12 0,11.1045695 0,10 C0,8.8954305 0.8954305,8 2,8 Z M2,0 C3.1045695,0 4,0.8954305 4,2 C4,3.1045695 3.1045695,4 2,4 C0.8954305,4 0,3.1045695 0,2 C0,0.8954305 0.8954305,0 2,0 Z" id="Actions"/>
                        </g>
                    </g>
                </g>
            </g>
        </g>
    </g>
</svg>